<svg xmlns="http://www.w3.org/2000/svg" id="_044-support" width="91.955" height="92.253" viewBox="0 0 91.955 92.253">
    <defs>
        <style>
            .cls-1{fill:#00b700}
        </style>
    </defs>
    <path id="패스_506" d="M21.566 278.68a1.348 1.348 0 0 0-1.646.963L18 287 1.124 308.059a1.348 1.348 0 1 0 2.1 1.686l17.056-21.283a1.346 1.346 0 0 0 .252-.5l2-7.634a1.348 1.348 0 0 0-.966-1.648z" class="cls-1" transform="translate(-.828 -228.543)"/>
    <path id="패스_507" d="M119.131 46.452a15.732 15.732 0 0 1 4.814-5.891l8.107-6.038a5.793 5.793 0 0 1 3.769-1.138l7.764.419a2.728 2.728 0 0 1 .142 5.438l-6.834.728a1.348 1.348 0 0 0-1.159.988l-2.61 9.642a6.5 6.5 0 0 0-.195 2.35l.4 4.048a1.349 1.349 0 0 0 1.34 1.215c.045 0 .09 0 .135-.007a1.348 1.348 0 0 0 1.208-1.475l-.4-4.048a3.81 3.81 0 0 1 .114-1.378l2.369-8.748 5.916-.63a5.425 5.425 0 0 0-.282-10.812l-7.764-.419a8.51 8.51 0 0 0-5.2 1.44l.021-.051a23.677 23.677 0 0 1 9.525-11.3l5.839-3.622a1.345 1.345 0 0 0 .344-.306l11.669-14.668a1.348 1.348 0 0 0-2.11-1.68l-11.526 14.477-5.64 3.5a26.357 26.357 0 0 0-10.6 12.584l-1.68 4.149-4.27 3.18a18.437 18.437 0 0 0-5.642 6.9 1.348 1.348 0 0 0 2.439 1.15z" class="cls-1" transform="translate(-95.756)"/>
    <path id="패스_508" d="M465.318 23.009a1.348 1.348 0 0 0-1.9.209l-7.488 9.352a1.348 1.348 0 1 0 2.1 1.686l7.493-9.352a1.348 1.348 0 0 0-.205-1.895z" class="cls-1" transform="translate(-373.869 -18.629)"/>
    <path id="패스_509" d="M184.723 100.007a1.348 1.348 0 0 0-1.9.209l-5.72 7.139a2.735 2.735 0 0 0-.6 1.685l-.039 6.153-1.374-.062a5.154 5.154 0 0 0-5.37 4.907l-.017.373a5.1 5.1 0 0 0 1.075 3.382 5.067 5.067 0 0 0-.735.557 5 5 0 0 0-1.632 3.487l-.016.362a5.007 5.007 0 0 0 1.036 3.285 5.029 5.029 0 0 0-2.307 4l-.016.361a4.994 4.994 0 0 0 1.144 3.427 5.128 5.128 0 0 0-1.747 6.787 1.343 1.343 0 0 0-.071.294l-.8 6.616a.322.322 0 0 1-.058.148l-3.654 5.067a1.507 1.507 0 0 1-2.61-1.472l2.061-3.145a7.8 7.8 0 0 0 .4-.793 4.233 4.233 0 0 0 .261-1.064l1.28-11.75a1.348 1.348 0 0 0-2.681-.292l-1.28 11.75a1.524 1.524 0 0 1-.065.3l-5.306 8.2a1.786 1.786 0 0 1-3.1-1.764l2.195-4.485a8.749 8.749 0 0 0 .354-1.367l1.469-12.772a1.348 1.348 0 1 0-2.679-.308L150.769 152a1.4 1.4 0 0 1-.261.666l-5.147 7.026a1.756 1.756 0 0 1-3.017-1.76l2.806-6.216a5.846 5.846 0 0 0 .489-2.981l-.448-4.5a1.348 1.348 0 1 0-2.683.267l.448 4.5a3.146 3.146 0 0 1-.263 1.6l-2.806 6.216a4.43 4.43 0 0 0-.376 2.222l-1.949.677a2.511 2.511 0 0 0-1.137.8l-9.071 11.322a1.348 1.348 0 1 0 2.1 1.686l9.038-11.281 2.056-.714a4.441 4.441 0 0 0 6.985-.252l.7-.96c.018.055.036.109.056.164a4.481 4.481 0 0 0 7.958.913l1.06-1.617a4.2 4.2 0 0 0 6.806-.017l.609-.845a4.289 4.289 0 0 0 7.006.42l2.223-2.775a6 6 0 0 0 1.279-3.068l.576-5.011a5.18 5.18 0 0 0 3.2-4.411 5.1 5.1 0 0 0-1.137-3.591 5.027 5.027 0 0 0 2.372-4.044l.016-.362a5.007 5.007 0 0 0-1-3.238 5.029 5.029 0 0 0 2.377-4.047l.016-.361a4.992 4.992 0 0 0-1.069-3.331 5.141 5.141 0 0 0 2.361-4.1l.017-.372a5.144 5.144 0 0 0-3.8-5.2l.045-6.4 5.719-7.139a1.348 1.348 0 0 0-.209-1.9zm-6.369 26.626a2.319 2.319 0 0 1 .609 1.68l-.016.361a2.332 2.332 0 0 1-2.436 2.226l-3.506-.182a2.335 2.335 0 0 1-1.908-2.4l.016-.362a2.334 2.334 0 0 1 2.329-2.229c.036 0 3.295.146 3.295.146a2.317 2.317 0 0 1 1.617.76zm-.8 9.687a2.335 2.335 0 0 1-2.436 2.226l-3.08-.139a2.333 2.333 0 0 1-2.226-2.436l.016-.361a2.336 2.336 0 0 1 2.436-2.226l3.4.177a2.335 2.335 0 0 1 1.908 2.4zm-5.7 18.561l-2.223 2.775a1.6 1.6 0 0 1-2.573-1.9l.738-1.083.007-.012a3.04 3.04 0 0 0 .519-1.353l.6-5.009a5.143 5.143 0 0 0 1.875.444l2.257.1-.5 4.349a3.3 3.3 0 0 1-.7 1.688zm4.468-10.988a2.463 2.463 0 0 1-2.555 2.281l-2.844-.128a2.451 2.451 0 0 1-2.335-2.615 2.466 2.466 0 0 1 2.555-2.281l2.845.128a2.451 2.451 0 0 1 2.335 2.615zm3.949-23.379l-.017.372a2.448 2.448 0 0 1-2.555 2.334l-2.96-.133a2.447 2.447 0 0 1-2.335-2.554l.017-.373a2.452 2.452 0 0 1 2.555-2.334l2.96.133a2.447 2.447 0 0 1 2.335 2.555z" class="cls-1" transform="translate(-104.363 -81.785)"/>
</svg>
