<svg xmlns="http://www.w3.org/2000/svg" id="그룹_215" width="432.781" height="82.67" viewBox="0 0 432.781 82.67">
    <defs>
        <style>
            .cls-1{fill:#00b700}
        </style>
    </defs>
    <g id="그룹_204" transform="translate(428.03 .979)">
        <path id="패스_482" d="M386.54 461.461V400.42h3.581v61.041z" class="cls-1" transform="translate(-385.967 -399.823)"/>
        <path id="패스_483" d="M391.051 462.381H386.3V400.17h4.751zm-3.581-1.17h2.411V401.34h-2.411z" class="cls-1" transform="translate(-386.3 -400.17)"/>
    </g>
    <g id="그룹_205">
        <path id="패스_484" d="M238.379 432.886V429.4h30.27v.692a40.627 40.627 0 0 1-.883 8.857A28.681 28.681 0 0 1 265 446.4a31.488 31.488 0 0 1-11.315 12.294 29.344 29.344 0 0 1-15.708 4.416 30.059 30.059 0 0 1-21.748-9.286 30.678 30.678 0 0 1-6.684-10.217 32.319 32.319 0 0 1-2.292-12.127 31.775 31.775 0 0 1 2.316-12.055 31.077 31.077 0 0 1 6.756-10.265 29.519 29.519 0 0 1 10.122-6.828 32.978 32.978 0 0 1 12.453-2.342 30.712 30.712 0 0 1 12.294 2.435 35.483 35.483 0 0 1 10.766 7.424l-2.721 2.483a31.068 31.068 0 0 0-9.453-6.8 26.134 26.134 0 0 0-10.695-2.2 29.362 29.362 0 0 0-7.735 1 25.588 25.588 0 0 0-6.756 2.912 27.922 27.922 0 0 0-9.859 10.313 28.262 28.262 0 0 0-3.485 13.846 28.8 28.8 0 0 0 2.005 10.719 27.993 27.993 0 0 0 5.849 9.1 26.9 26.9 0 0 0 8.713 6.087A24.9 24.9 0 0 0 238 459.432a25.318 25.318 0 0 0 13.846-3.987 27.589 27.589 0 0 0 9.883-11.148 26.335 26.335 0 0 0 2.077-5.538 25.387 25.387 0 0 0 .764-5.873h-26.191z" class="cls-1" transform="translate(-206.653 -399.441)"/>
        <path id="패스_485" d="M238.3 464.024a30.6 30.6 0 0 1-22.154-9.477 31.709 31.709 0 0 1-6.8-10.385A32.989 32.989 0 0 1 207 431.821a32.156 32.156 0 0 1 9.239-22.727 29.924 29.924 0 0 1 10.313-6.947 33.735 33.735 0 0 1 12.676-2.387 31.485 31.485 0 0 1 12.533 2.483 36.3 36.3 0 0 1 10.934 7.544l.454.43-3.6 3.27-.406-.406a30.388 30.388 0 0 0-9.286-6.684 25.451 25.451 0 0 0-10.456-2.148 29.411 29.411 0 0 0-7.591.979 24.344 24.344 0 0 0-6.589 2.841 27.255 27.255 0 0 0-13.058 23.658 28.52 28.52 0 0 0 1.958 10.5 27.883 27.883 0 0 0 5.729 8.9 26.5 26.5 0 0 0 8.522 5.968 24.533 24.533 0 0 0 9.931 2.077 24.858 24.858 0 0 0 13.536-3.891 27.078 27.078 0 0 0 9.668-10.91 26.616 26.616 0 0 0 2.053-5.419 24.647 24.647 0 0 0 .74-5.156h-26.17v-4.655h31.44v1.265a41.926 41.926 0 0 1-.907 9 29.076 29.076 0 0 1-2.817 7.615 31.917 31.917 0 0 1-11.53 12.509 30.26 30.26 0 0 1-16.016 4.494zm.931-63.118a32.4 32.4 0 0 0-12.246 2.292 29.17 29.17 0 0 0-9.931 6.684 30.943 30.943 0 0 0-6.636 10.074 32.074 32.074 0 0 0-.024 23.753 30.789 30.789 0 0 0 6.565 10.026 30.036 30.036 0 0 0 9.74 6.756 29.573 29.573 0 0 0 26.976-1.958 30.709 30.709 0 0 0 11.1-12.079 28.8 28.8 0 0 0 2.721-7.3 41.155 41.155 0 0 0 .883-8.737v-.1h-29.1v2.316h26.188v.6a25.183 25.183 0 0 1-.788 6.016 28.938 28.938 0 0 1-2.125 5.658 28.361 28.361 0 0 1-10.1 11.363 26.349 26.349 0 0 1-24.565 1.91 27.474 27.474 0 0 1-8.9-6.231 28.918 28.918 0 0 1-8.021-20.22 28.512 28.512 0 0 1 13.631-24.66 25 25 0 0 1 6.923-2.984 30.594 30.594 0 0 1 7.878-1.026 26.982 26.982 0 0 1 10.934 2.244 31.962 31.962 0 0 1 9.239 6.517l1.838-1.671a35.022 35.022 0 0 0-10.146-6.875 30.06 30.06 0 0 0-12.037-2.368z" class="cls-1" transform="translate(-207 -399.76)"/>
    </g>
    <g id="그룹_206" transform="translate(70.065 20.626)">
        <path id="패스_486" d="M236.59 450.045v-41.2h3.485v8.045a16.982 16.982 0 0 1 6.111-6.159 16.481 16.481 0 0 1 8.284-2.077c.286 0 .621.024.979.048s.859.1 1.456.167v3.462h-.263c-1.337-.119-2.22-.167-2.674-.167a12.66 12.66 0 0 0-9.979 4.512c-2.626 3.008-3.915 6.851-3.915 11.554v21.819h-3.484z" class="cls-1" transform="translate(-236.017 -408.053)"/>
        <path id="패스_487" d="M241.005 450.964h-4.655v-42.4h4.655v6.708a16.693 16.693 0 0 1 5.252-4.727 17.048 17.048 0 0 1 8.57-2.148c.286 0 .645.024 1.027.048s.883.1 1.48.167l.5.072v4.536h-.883c-1.313-.119-2.2-.167-2.626-.167a12.094 12.094 0 0 0-9.525 4.321 16.482 16.482 0 0 0-3.772 11.172v22.416zm-3.509-1.17h2.316v-21.246a17.6 17.6 0 0 1 4.058-11.936 13.274 13.274 0 0 1 10.408-4.727c.43 0 1.194.048 2.363.143v-2.316c-.358-.048-.668-.072-.907-.1-.358-.024-.668-.048-.931-.048a16.021 16.021 0 0 0-8 1.981 16.184 16.184 0 0 0-5.9 5.944l-1.1 1.79v-9.573H237.5v40.082z" class="cls-1" transform="translate(-236.35 -408.4)"/>
    </g>
    <g id="그룹_207" transform="translate(92.668 20.241)">
        <path id="패스_488" d="M283.99 441.759a22.19 22.19 0 0 1-13.655 8.88 19.553 19.553 0 0 1-15.207-3.223 20.451 20.451 0 0 1-5.705-5.753 19.962 19.962 0 0 1-2.984-7.568 21.386 21.386 0 0 1 .072-8.355 21.646 21.646 0 0 1 16.9-16.854 20.562 20.562 0 0 1 8.188-.024 21.242 21.242 0 0 1 7.639 3.247 19.761 19.761 0 0 1 6.875 7.758 21.552 21.552 0 0 1 1.934 10.6l-37.623-.167.167-3.223 33.732.119a15.9 15.9 0 0 0-1.91-7.162 15.348 15.348 0 0 0-5.013-5.371 16.259 16.259 0 0 0-13.106-2.483 19.056 19.056 0 0 0-14.419 21.294 16.109 16.109 0 0 0 7.114 11.124 15.8 15.8 0 0 0 12.461 2.578 19.165 19.165 0 0 0 11.411-7.544z" class="cls-1" transform="translate(-245.48 -407.928)"/>
        <path id="패스_489" d="M266.758 451.928a20.5 20.5 0 0 1-11.6-3.7 21.008 21.008 0 0 1-5.873-5.92 20.714 20.714 0 0 1-3.08-7.782 22.4 22.4 0 0 1 9.5-22.535 22.463 22.463 0 0 1 7.926-3.318 21.078 21.078 0 0 1 16.281 3.318 20.2 20.2 0 0 1 7.066 8 22.111 22.111 0 0 1 1.981 10.886l-.024.549-38.363-.167a17.819 17.819 0 0 0 .239 2.483 15.651 15.651 0 0 0 6.875 10.742 15.385 15.385 0 0 0 12.008 2.483 18.831 18.831 0 0 0 11.077-7.329l.334-.43 4.082 2.745-.382.5a22.828 22.828 0 0 1-14.013 9.119 26.093 26.093 0 0 1-4.034.356zm1.194-42.54a21.523 21.523 0 0 0-4.082.406 20.851 20.851 0 0 0-13.273 8.9 21.545 21.545 0 0 0-3.2 7.472 20.193 20.193 0 0 0-.072 8.117 19.4 19.4 0 0 0 2.912 7.353 20.22 20.22 0 0 0 5.538 5.586 19.2 19.2 0 0 0 14.777 3.127 21.411 21.411 0 0 0 12.915-8.188l-2.148-1.432a19.715 19.715 0 0 1-11.411 7.329 17.273 17.273 0 0 1-20.29-14.158 19.683 19.683 0 0 1 14.872-21.986 16.866 16.866 0 0 1 13.56 2.586 15.815 15.815 0 0 1 7.185 12.986l.024.621-33.8-.119-.119 2.053 36.453.167a20.9 20.9 0 0 0-1.886-9.764 19.13 19.13 0 0 0-6.66-7.544 20.3 20.3 0 0 0-7.424-3.151 20.8 20.8 0 0 0-3.871-.361zm-16.925 17.451l33.015.119a14.886 14.886 0 0 0-1.814-6.278 15.087 15.087 0 0 0-4.822-5.18 15.736 15.736 0 0 0-12.652-2.411 17.538 17.538 0 0 0-11.005 7.639 19.553 19.553 0 0 0-2.722 6.11z" class="cls-1" transform="translate(-245.818 -408.239)"/>
    </g>
    <g id="그룹_208" transform="translate(139.712 20.228)">
        <path id="패스_490" d="M303.729 441.7a22.077 22.077 0 0 1-13.631 8.9 19.626 19.626 0 0 1-15.207-3.175 20.461 20.461 0 0 1-5.729-5.729 20 20 0 0 1-3.008-7.568 20.939 20.939 0 0 1 .072-8.355 22.193 22.193 0 0 1 9.167-13.631 21.913 21.913 0 0 1 7.707-3.242 20.567 20.567 0 0 1 8.188-.048 21.616 21.616 0 0 1 7.639 3.223 19.42 19.42 0 0 1 6.875 7.759 21.288 21.288 0 0 1 1.934 10.6l-38.124-.1.167-3.223 34.257.048a16.042 16.042 0 0 0-1.934-7.138 15.348 15.348 0 0 0-5.013-5.371 16.248 16.248 0 0 0-13.106-2.459 19.065 19.065 0 0 0-14.371 21.318 16.042 16.042 0 0 0 7.138 11.1 15.777 15.777 0 0 0 12.461 2.53 19.193 19.193 0 0 0 11.387-7.568z" class="cls-1" transform="translate(-265.186 -407.909)"/>
        <path id="패스_491" d="M286.473 451.935a20.579 20.579 0 0 1-11.578-3.676 20.813 20.813 0 0 1-8.976-13.679 21.566 21.566 0 0 1 .072-8.57 22.628 22.628 0 0 1 3.342-7.9 22.036 22.036 0 0 1 13.989-9.43 21.316 21.316 0 0 1 8.427-.048 21.782 21.782 0 0 1 7.854 3.318 20.391 20.391 0 0 1 7.09 7.973 22.117 22.117 0 0 1 2.005 10.886l-.024.549-38.363-.1a18.154 18.154 0 0 0 .239 2.507 15.505 15.505 0 0 0 6.9 10.719 15.3 15.3 0 0 0 12.008 2.459 18.753 18.753 0 0 0 11.053-7.353l.334-.43 4.082 2.745-.382.5a22.882 22.882 0 0 1-13.989 9.143 24.063 24.063 0 0 1-4.083.387zm1.194-42.54a20.4 20.4 0 0 0-4.13.43 20.955 20.955 0 0 0-7.5 3.151 20.726 20.726 0 0 0-5.729 5.8 20.879 20.879 0 0 0-3.247 15.612 19.577 19.577 0 0 0 8.475 12.939 19.085 19.085 0 0 0 14.777 3.1 21.506 21.506 0 0 0 12.891-8.212l-2.148-1.432a19.684 19.684 0 0 1-11.411 7.353 16.386 16.386 0 0 1-12.915-2.626 16.756 16.756 0 0 1-7.4-11.506A19.693 19.693 0 0 1 284.158 412a16.856 16.856 0 0 1 13.559 2.554 16.042 16.042 0 0 1 5.2 5.562 16.584 16.584 0 0 1 2.005 7.4l.024.621-34.3-.048-.1 2.053 36.954.1a20.615 20.615 0 0 0-1.91-9.764 19.155 19.155 0 0 0-6.684-7.52 20.47 20.47 0 0 0-7.424-3.151 16.876 16.876 0 0 0-3.815-.412zm-16.925 17.474l33.015.048a15.239 15.239 0 0 0-1.814-6.278 14.811 14.811 0 0 0-4.822-5.156 15.733 15.733 0 0 0-12.652-2.363 17.464 17.464 0 0 0-10.981 7.663 18.258 18.258 0 0 0-2.746 6.086z" class="cls-1" transform="translate(-265.525 -408.234)"/>
    </g>
    <g id="그룹_209" transform="translate(189.236 20.029)">
        <path id="패스_492" d="M290 450.391h-3.49v-23.323q0-8.558 4.56-13.607c3.032-3.366 7.114-5.061 12.2-5.061s9.143 1.695 12.2 5.061q4.548 5.049 4.56 13.607v23.323h-3.485V425.97a14.7 14.7 0 0 0-3.676-10.361 13.544 13.544 0 0 0-19.146 0 14.591 14.591 0 0 0-3.676 10.361v24.421z" class="cls-1" transform="translate(-285.937 -407.803)"/>
        <path id="패스_493" d="M320.933 451.311h-4.655v-25.018a14.1 14.1 0 0 0-3.533-9.955 12.968 12.968 0 0 0-18.286 0 14.1 14.1 0 0 0-3.533 9.955v25.018h-4.656v-23.9c0-5.825 1.576-10.552 4.7-14.013 3.151-3.485 7.4-5.252 12.628-5.252s9.477 1.767 12.629 5.252c3.127 3.461 4.7 8.164 4.7 14.013zm-3.509-1.17h2.316v-22.726c0-5.538-1.48-9.979-4.416-13.225-2.912-3.223-6.875-4.846-11.745-4.846-4.894 0-8.833 1.623-11.745 4.846-2.936 3.247-4.416 7.687-4.416 13.225v22.726h2.316v-23.824a15.247 15.247 0 0 1 3.844-10.766 14.12 14.12 0 0 1 20 0 15.206 15.206 0 0 1 3.843 10.766v23.825z" class="cls-1" transform="translate(-286.27 -408.15)"/>
    </g>
    <g id="그룹_210" transform="translate(230.773 20.841)">
        <path id="패스_494" d="M303.934 446.52h17.856a12.477 12.477 0 0 0 7.281-1.838 5.834 5.834 0 0 0 2.6-5.061 6.644 6.644 0 0 0-2.244-5.156c-1.48-1.361-3.891-2.483-7.186-3.366l-7.973-2.22a16.922 16.922 0 0 1-7.758-4.034 8.95 8.95 0 0 1-2.507-6.493 8.349 8.349 0 0 1 3.366-7.138c2.244-1.671 5.467-2.483 9.62-2.483h15.183v3.318h-16.5c-2.65 0-4.655.549-6.04 1.671a5.807 5.807 0 0 0-2.077 4.822 5.484 5.484 0 0 0 2.005 4.273 16.928 16.928 0 0 0 6.35 2.984l8.308 2.34a17.957 17.957 0 0 1 8.212 4.345 9.513 9.513 0 0 1 2.793 6.9c0 3.581-1.313 6.231-3.939 7.973s-6.66 2.6-12.127 2.6H303.91v-3.437z" class="cls-1" transform="translate(-303.337 -408.157)"/>
        <path id="패스_495" d="M319.521 450.84H303.67v-4.583h18.453a12 12 0 0 0 6.947-1.719 5.285 5.285 0 0 0 2.339-4.584 6.085 6.085 0 0 0-2.053-4.727A16.677 16.677 0 0 0 322.41 432l-7.973-2.22a17.489 17.489 0 0 1-8.021-4.178 9.47 9.47 0 0 1-2.674-6.9 8.966 8.966 0 0 1 3.6-7.615c2.34-1.719 5.706-2.6 9.979-2.6h15.756v4.488h-17.065a9.032 9.032 0 0 0-5.658 1.528 5.241 5.241 0 0 0-1.838 4.369 4.846 4.846 0 0 0 1.814 3.82 16.157 16.157 0 0 0 6.135 2.865l8.308 2.339a18.545 18.545 0 0 1 8.475 4.512 10.13 10.13 0 0 1 2.96 7.3c0 3.772-1.408 6.613-4.2 8.451-2.747 1.773-6.948 2.681-12.487 2.681zm-14.681-1.17h14.681c5.324 0 9.286-.836 11.793-2.507 2.483-1.623 3.676-4.082 3.676-7.472a8.993 8.993 0 0 0-2.626-6.493 17.617 17.617 0 0 0-7.949-4.2l-8.308-2.34a17.158 17.158 0 0 1-6.565-3.1 6.042 6.042 0 0 1-2.2-4.7 6.39 6.39 0 0 1 2.292-5.276 10.009 10.009 0 0 1 6.4-1.79h15.9v-2.148h-14.585c-4.034 0-7.162.812-9.286 2.387a7.735 7.735 0 0 0-3.127 6.66 8.3 8.3 0 0 0 2.34 6.087c1.6 1.647 4.106 2.936 7.5 3.867l7.973 2.22c3.366.907 5.873 2.077 7.424 3.509a7.319 7.319 0 0 1 2.435 5.586 6.489 6.489 0 0 1-2.841 5.562c-1.814 1.289-4.392 1.934-7.615 1.934h-17.288v2.22z" class="cls-1" transform="translate(-303.67 -408.49)"/>
    </g>
    <g id="그룹_211" transform="translate(270.067 6.684)">
        <path id="패스_496" d="M320.38 405.317a2.448 2.448 0 0 1 2.507-2.507 2.693 2.693 0 0 1 1.886.716 2.381 2.381 0 0 1 .764 1.79 2.564 2.564 0 0 1-.764 1.838 2.594 2.594 0 0 1-1.886.764 2.4 2.4 0 0 1-1.767-.764 2.5 2.5 0 0 1-.74-1.837zm.764 52.829v-41.2h3.581v41.2z" class="cls-1" transform="translate(-319.783 -402.213)"/>
        <path id="패스_497" d="M325.645 459.066h-4.751v-42.4h4.751zm-3.581-1.17h2.411v-40.034h-2.411zm1.17-49.034a2.951 2.951 0 0 1-2.2-.955 3.159 3.159 0 0 1-.907-2.244 3.1 3.1 0 0 1 3.1-3.1 3.153 3.153 0 0 1 2.268.883 2.977 2.977 0 0 1 .955 2.22 3.084 3.084 0 0 1-.931 2.244 3.045 3.045 0 0 1-2.286.952zm0-5.109a1.948 1.948 0 0 0-1.385.549 1.817 1.817 0 0 0-.549 1.385 2.022 2.022 0 0 0 .573 1.432 1.782 1.782 0 0 0 1.337.6 1.964 1.964 0 0 0 1.456-.6 1.9 1.9 0 0 0 .6-1.409 1.785 1.785 0 0 0-.573-1.361 1.813 1.813 0 0 0-1.46-.595z" class="cls-1" transform="translate(-320.13 -402.56)"/>
    </g>
    <g id="그룹_212" transform="translate(282.863 20.077)">
        <path id="패스_498" d="M367.182 448.72c0 6.517-1.814 11.65-5.443 15.445s-8.522 5.682-14.729 5.682a29.594 29.594 0 0 1-5.729-.6 59.915 59.915 0 0 1-6.756-1.79l1.241-3.581a60.048 60.048 0 0 0 6.493 1.814 24.525 24.525 0 0 0 4.918.573q7.627 0 12.008-4.679 4.4-4.691 4.392-12.867V431.89c0-6.183-1.552-11.124-4.631-14.777a15.368 15.368 0 0 0-12.39-5.467 16.139 16.139 0 0 0-12.2 5.156 19.623 19.623 0 0 0-.048 25.878 16.107 16.107 0 0 0 12.246 5.109 22.015 22.015 0 0 0 8.666-1.719 23.17 23.17 0 0 0 7.114-5.18v4.679a23.5 23.5 0 0 1-7.138 4.2 26.439 26.439 0 0 1-8.642 1.385 21.2 21.2 0 0 1-8.308-1.6 19.194 19.194 0 0 1-6.684-4.655 21.456 21.456 0 0 1-4.345-6.923 22.308 22.308 0 0 1-1.48-8.164 21.246 21.246 0 0 1 5.849-15.35 19.743 19.743 0 0 1 14.8-6.064 20.19 20.19 0 0 1 10.217 2.65 21.212 21.212 0 0 1 7.663 7.591 18 18 0 0 1 2.172 5.729 38.565 38.565 0 0 1 .692 7.782v16.57z" class="cls-1" transform="translate(-325.143 -407.851)"/>
        <path id="패스_499" d="M347.381 470.763a33.063 33.063 0 0 1-5.849-.6 56.483 56.483 0 0 1-6.827-1.814l-.573-.191 1.623-4.679.549.191a61.4 61.4 0 0 0 6.445 1.79 23.27 23.27 0 0 0 4.8.573c4.894 0 8.785-1.5 11.6-4.512s4.225-7.186 4.225-12.461v-16.83c0-6.016-1.5-10.862-4.488-14.4a14.94 14.94 0 0 0-11.936-5.276 15.667 15.667 0 0 0-11.769 4.965 19.015 19.015 0 0 0-.072 25.066 15.652 15.652 0 0 0 11.817 4.942 21.541 21.541 0 0 0 8.4-1.671 22.745 22.745 0 0 0 6.947-5.037l1.026-1.146v6.493l-.191.167a24.151 24.151 0 0 1-7.329 4.321 27.216 27.216 0 0 1-8.857 1.432 21.985 21.985 0 0 1-8.546-1.647 20.084 20.084 0 0 1-6.9-4.8 22.22 22.22 0 0 1-4.464-7.114 22.893 22.893 0 0 1-1.528-8.379 21.863 21.863 0 0 1 6.016-15.756 20.407 20.407 0 0 1 15.231-6.231 20.971 20.971 0 0 1 10.528 2.722 21.946 21.946 0 0 1 7.878 7.782 18.627 18.627 0 0 1 2.244 5.92 39.843 39.843 0 0 1 .692 7.9v16.591c0 6.636-1.886 11.96-5.586 15.851-3.671 3.857-8.78 5.838-15.106 5.838zm-11.745-3.342a61.606 61.606 0 0 0 6.111 1.6 30.576 30.576 0 0 0 5.61.6c5.992 0 10.814-1.862 14.3-5.515 3.509-3.652 5.276-8.713 5.276-15.039v-16.595a37.487 37.487 0 0 0-.668-7.663 17.371 17.371 0 0 0-2.1-5.538 20.779 20.779 0 0 0-7.448-7.377 19.848 19.848 0 0 0-9.931-2.554 19.289 19.289 0 0 0-14.4 5.873 20.707 20.707 0 0 0-5.705 14.944 21.563 21.563 0 0 0 1.456 7.949 20.947 20.947 0 0 0 4.225 6.732 18.682 18.682 0 0 0 6.493 4.536 21.065 21.065 0 0 0 8.093 1.552 26.144 26.144 0 0 0 8.427-1.337 22.744 22.744 0 0 0 6.756-3.915v-2.984a25.313 25.313 0 0 1-6.278 4.249 22.529 22.529 0 0 1-8.9 1.79 16.787 16.787 0 0 1-12.676-5.3 20.231 20.231 0 0 1 .072-26.689 16.807 16.807 0 0 1 12.6-5.347 15.977 15.977 0 0 1 12.819 5.682c3.151 3.748 4.751 8.833 4.751 15.135v16.83c0 5.586-1.528 10.05-4.536 13.273-3.032 3.223-7.209 4.87-12.437 4.87a23.922 23.922 0 0 1-5.037-.6 59.418 59.418 0 0 1-6.016-1.647z" class="cls-1" transform="translate(-325.49 -408.17)"/>
    </g>
    <g id="그룹_213" transform="translate(334.475 20.029)">
        <path id="패스_500" d="M350.845 450.391h-3.485v-23.323q0-8.558 4.56-13.607c3.032-3.366 7.114-5.061 12.2-5.061s9.143 1.695 12.2 5.061q4.548 5.049 4.56 13.607v23.323h-3.485V425.97a14.591 14.591 0 0 0-3.676-10.361 13.544 13.544 0 0 0-19.146 0 14.591 14.591 0 0 0-3.676 10.361v24.421z" class="cls-1" transform="translate(-346.763 -407.803)"/>
        <path id="패스_501" d="M381.773 451.311h-4.655v-25.018a14.1 14.1 0 0 0-3.533-9.955 12.968 12.968 0 0 0-18.286 0 14.1 14.1 0 0 0-3.533 9.955v25.018h-4.656v-23.9c0-5.825 1.576-10.552 4.7-14.013 3.151-3.485 7.4-5.252 12.628-5.252s9.477 1.767 12.628 5.252c3.127 3.461 4.7 8.164 4.7 14.013zm-3.485-1.17h2.312v-22.726c0-5.538-1.48-9.979-4.416-13.225-2.912-3.223-6.875-4.846-11.745-4.846-4.894 0-8.857 1.623-11.745 4.846-2.936 3.247-4.416 7.687-4.416 13.225v22.726h2.322v-23.824a15.247 15.247 0 0 1 3.843-10.766 14.12 14.12 0 0 1 20.005 0 15.207 15.207 0 0 1 3.843 10.766v23.825z" class="cls-1" transform="translate(-347.11 -408.15)"/>
    </g>
    <g id="그룹_214" transform="translate(375.846 20.029)">
        <path id="패스_502" d="M402.528 450.391v-18.5c0-6.183-1.552-11.125-4.631-14.777a15.369 15.369 0 0 0-12.39-5.467 16.14 16.14 0 0 0-12.2 5.156 19.623 19.623 0 0 0-.048 25.878 16.107 16.107 0 0 0 12.247 5.109 22.017 22.017 0 0 0 8.666-1.719 23.171 23.171 0 0 0 7.114-5.18v4.679a23.5 23.5 0 0 1-7.138 4.2 26.438 26.438 0 0 1-8.642 1.385 21.205 21.205 0 0 1-8.307-1.6 19.192 19.192 0 0 1-6.684-4.655 21.455 21.455 0 0 1-4.345-6.923 22.307 22.307 0 0 1-1.48-8.164 21.246 21.246 0 0 1 5.849-15.35 19.742 19.742 0 0 1 14.8-6.064 20.19 20.19 0 0 1 10.217 2.65 21.211 21.211 0 0 1 7.663 7.591 18 18 0 0 1 2.172 5.729 38.576 38.576 0 0 1 .692 7.782v18.238h-3.557z" class="cls-1" transform="translate(-364.093 -407.803)"/>
        <path id="패스_503" d="M385.877 452.075a21.986 21.986 0 0 1-8.546-1.647 20.086 20.086 0 0 1-6.9-4.8 22.218 22.218 0 0 1-4.464-7.114 22.891 22.891 0 0 1-1.528-8.379 21.862 21.862 0 0 1 6.016-15.756 20.407 20.407 0 0 1 15.23-6.231 20.971 20.971 0 0 1 10.528 2.721 21.946 21.946 0 0 1 7.878 7.782 18.624 18.624 0 0 1 2.244 5.92 39.842 39.842 0 0 1 .692 7.9v18.835h-4.751v-19.069c0-6.016-1.5-10.862-4.488-14.4a14.94 14.94 0 0 0-11.936-5.276 15.666 15.666 0 0 0-11.769 4.965 19.015 19.015 0 0 0-.072 25.066 15.653 15.653 0 0 0 11.817 4.942 21.541 21.541 0 0 0 8.4-1.671 22.746 22.746 0 0 0 6.947-5.037l1.026-1.146v6.493l-.191.167a24.15 24.15 0 0 1-7.329 4.321 26.89 26.89 0 0 1-8.804 1.414zm-.167-42.755a19.289 19.289 0 0 0-14.395 5.873 20.707 20.707 0 0 0-5.706 14.944 21.56 21.56 0 0 0 1.456 7.949 20.944 20.944 0 0 0 4.225 6.732 18.681 18.681 0 0 0 6.493 4.536 21.064 21.064 0 0 0 8.093 1.552 26.143 26.143 0 0 0 8.427-1.337 22.746 22.746 0 0 0 6.756-3.915v-2.984a25.319 25.319 0 0 1-6.278 4.249 22.532 22.532 0 0 1-8.9 1.79 16.787 16.787 0 0 1-12.676-5.3 20.232 20.232 0 0 1 .072-26.689 16.807 16.807 0 0 1 12.6-5.347 15.977 15.977 0 0 1 12.819 5.682c3.151 3.748 4.751 8.833 4.751 15.135v17.9h2.411v-17.662a37.482 37.482 0 0 0-.668-7.663 17.373 17.373 0 0 0-2.1-5.538 20.779 20.779 0 0 0-7.448-7.377 20.334 20.334 0 0 0-9.932-2.53z" class="cls-1" transform="translate(-364.44 -408.15)"/>
    </g>
</svg>
