<svg xmlns="http://www.w3.org/2000/svg" width="83.099" height="91.882" viewBox="0 0 83.099 91.882">
    <defs>
        <style>
            .cls-1{fill:#00b700}
        </style>
    </defs>
    <g id="_001-arm_wrestling">
        <path id="패스_510" d="M449.166 366.535l-5.409-4.347a1.348 1.348 0 0 0-1.689 2.1l5.409 4.347a1.348 1.348 0 0 0 1.689-2.1z" class="cls-1" transform="translate(-366.571 -296.83)"/>
        <path id="패스_511" d="M97.129 167.251l-3.916-3.151-3.355-6.1a9.906 9.906 0 0 0-2.874-3.246l-.8-.574 1.377-1.714a5.141 5.141 0 0 0-4.795-8.3 5.135 5.135 0 0 0-5.916-4.755 5.135 5.135 0 0 0-5.916-4.755 5.14 5.14 0 0 0-8.832-3.244l-2.123-1.712a4.9 4.9 0 0 0-7.924 4.476c-.043 0-.086.006-.128.011a4.9 4.9 0 0 0-4.323 5.53 4.9 4.9 0 0 0-4.5 4.707L41.463 146l-.019.019a18.8 18.8 0 0 0-5.484 11.926l-.49 6.572-10.746 13.366a1.348 1.348 0 1 0 2.1 1.689l11.008-13.7a1.349 1.349 0 0 0 .294-.745l.521-6.99a16.106 16.106 0 0 1 4.688-10.206l.61-.584a4.917 4.917 0 0 0 .987 1.068l2.109 1.695-2.441 3.048a1.348 1.348 0 1 0 2.1 1.689l17.2-21.4a2.447 2.447 0 0 1 3.817 3.062l-.164.193a1.348 1.348 0 0 0 2.059 1.742l.006-.007c.033-.033.2-.234.2-.234a2.447 2.447 0 0 1 3.815 3.065s-.169.218-.2.264a1.348 1.348 0 0 0 2.162 1.612l.153-.2a2.447 2.447 0 0 1 3.8 3.083s-.174.225-.2.275l-.013.018a1.348 1.348 0 0 0 2.171 1.6l.166-.225a2.447 2.447 0 0 1 3.8 3.085L84 152.6l-6.342-4.566a6.518 6.518 0 0 0-3.834-1.229l-7.41.028a4.886 4.886 0 0 0-1.083 9.647l7.158 1.655.013.59a15.262 15.262 0 0 0 1.533 6.33 1.336 1.336 0 0 0-.217.214l-3.45 4.292a1.348 1.348 0 1 0 2.1 1.689l3.035-3.776a15.294 15.294 0 0 0 2.7 2.8l1 .808a1.348 1.348 0 1 0 1.689-2.1l-1-.808a12.548 12.548 0 0 1-4.694-9.511l-.038-1.637a1.348 1.348 0 0 0-1.044-1.283l-8.177-1.891a2.19 2.19 0 0 1 .485-4.323l7.41-.028h.015a3.8 3.8 0 0 1 2.234.721l9.33 6.718a7.19 7.19 0 0 1 2.087 2.36l3.484 6.337a1.348 1.348 0 0 0 .337.4l4.125 3.315a1.348 1.348 0 1 0 1.689-2.1zM55.19 132.14a2.191 2.191 0 0 1 1.48-.811 2.251 2.251 0 0 1 .243-.013 2.189 2.189 0 0 1 1.377.486l2.11 1.698-2.763 3.437-2.109-1.695a2.208 2.208 0 0 1-.338-3.102zm-4.452 5.539a2.19 2.19 0 0 1 1.48-.81 2.248 2.248 0 0 1 .243-.013 2.188 2.188 0 0 1 1.377.487l2.109 1.695-2.762 3.437-2.109-1.695a2.207 2.207 0 0 1-.337-3.1zm-4.925 7.159a2.205 2.205 0 0 1 3.573-1.957l2.109 1.695-2.763 3.437-2.109-1.695a2.19 2.19 0 0 1-.811-1.48z" class="cls-1" transform="translate(-24.426 -105.496)"/>
        <path id="패스_512" d="M182.665 399.571l-10.918-8.771a1.348 1.348 0 0 0-.794-.3l-.509-.019a13.448 13.448 0 0 1-7.617-2.7l-4.744-3.568c.034-.042.07-.082.1-.124l2.727-3.393a1.348 1.348 0 1 0-2.1-1.689l-2.727 3.393a11.468 11.468 0 0 1-7.362 4.186 2.5 2.5 0 0 0-1.6.912l-10.165 12.647a1.348 1.348 0 1 0 2.1 1.689l10.119-12.589a14.148 14.148 0 0 0 6.986-3.1l5.046 3.795a16.131 16.131 0 0 0 9.138 3.243h.063l10.569 8.495a1.348 1.348 0 1 0 1.689-2.1z" class="cls-1" transform="translate(-116.479 -310.452)"/>
        <path id="패스_513" d="M224.877 10.648a2.358 2.358 0 0 0 4.25 0l3.224-6.7A2.359 2.359 0 0 0 231 .7a11.9 11.9 0 0 0-8.019 0 2.357 2.357 0 0 0-1.334 3.246zm4.878-7.521L227 8.845l-2.757-5.73a9.07 9.07 0 0 1 5.511.011z" class="cls-1" transform="translate(-186)"/>
        <path id="패스_514" d="M338.518 47.227a2.342 2.342 0 0 0 2.488.334l6.765-3.083a2.358 2.358 0 0 0 1.045-3.362 11.9 11.9 0 0 0-6.158-5.136 2.358 2.358 0 0 0-3.1 1.64l-1.814 7.22a2.342 2.342 0 0 0 .774 2.387zm3.558-8.578a9.067 9.067 0 0 1 4.226 3.536l-5.776 2.632z" class="cls-1" transform="translate(-281.353 -29.392)"/>
        <path id="패스_515" d="M104.811 44.481l6.766 3.083a2.342 2.342 0 0 0 2.488-.334 2.341 2.341 0 0 0 .778-2.387l-1.814-7.22a2.357 2.357 0 0 0-3.1-1.64 11.9 11.9 0 0 0-6.158 5.136 2.358 2.358 0 0 0 1.045 3.362zm5.695-5.83l1.549 6.167-5.776-2.632a9.071 9.071 0 0 1 4.227-3.535z" class="cls-1" transform="translate(-89.225 -29.394)"/>
    </g>
</svg>
