<svg xmlns="http://www.w3.org/2000/svg" width="92.178" height="92.131" viewBox="0 0 92.178 92.131">
    <path fill="#00b700" d="M91.828 19.19a1.349 1.349 0 0 0-1.9-.093l-3.986 3.614a.41.41 0 0 1-.578-.028l-2.914-3.214a1.348 1.348 0 0 0-2 1.811l2.377 2.62-4.021 3.646a1.347 1.347 0 0 0-.406.688l-1.107 4.67a12.714 12.714 0 0 1-3.847 6.515l-7.9 7.167a1.955 1.955 0 1 1-2.627-2.9l3.448-3.126a1.348 1.348 0 0 0-1.811-2L61.1 41.694a4.63 4.63 0 0 0-1.213 1.763 4.378 4.378 0 0 0-1.862-.414 4.366 4.366 0 0 0-1.9.43 4.379 4.379 0 0 0-.623-1.24l3.366-3.052a1.348 1.348 0 0 0-1.811-2l-1.91 1.731a4.4 4.4 0 0 0-1.076-1.649l-1.065-1.029 1.727-1.566a1.348 1.348 0 0 0-1.811-2l-1.857 1.692-3.8-3.669a4.648 4.648 0 0 0 1.835-7.342l5.729-5.194a20.637 20.637 0 0 1 9.671-4.917 1.349 1.349 0 0 0 .633-.322l4.246-3.846 7.205 7.947a1.348 1.348 0 0 0 2-1.811l-7.743-8.539a.41.41 0 0 1 .028-.578l3.986-3.614a1.348 1.348 0 1 0-1.811-2l-3.986 3.617a3.1 3.1 0 0 0-1.006 2.541l-4.458 4.042a23.335 23.335 0 0 0-10.578 5.482l-5.845 5.3-6.055-5.848a15.4 15.4 0 0 0-8.181-4.128l-4.321-.726-4.073-3.937a3.1 3.1 0 0 0-.925-2.572L19.747.508a1.348 1.348 0 1 0-1.874 1.939l3.869 3.738a.41.41 0 0 1 .01.579L6.733 22.311a.4.4 0 0 1-.287.125.416.416 0 0 1-.291-.115l-3.87-3.738a1.348 1.348 0 1 0-1.873 1.939l3.869 3.738a3.085 3.085 0 0 0 2.157.872h.055a3.154 3.154 0 0 0 .392-.034l4.326 4.179a23.337 23.337 0 0 0 6.169 10.192l2.814 2.719a1.348 1.348 0 0 0 1.874-1.939l-2.815-2.719a20.634 20.634 0 0 1-5.546-9.33 1.348 1.348 0 0 0-.363-.61l-4.117-3.979 13.911-14.4 3.9 3.772a1.348 1.348 0 0 0 .713.36l4.733.8a12.714 12.714 0 0 1 6.755 3.408l7.674 7.414a1.954 1.954 0 0 1-2.448 3.027l-3.616-3.449a1.348 1.348 0 0 0-1.874 1.939L52.2 39.207a1.683 1.683 0 0 1 .516 1.264 4.379 4.379 0 0 0-.773-.07 4.368 4.368 0 0 0-1.7.344 4.39 4.39 0 0 0-4.375-4.086h-.005a4.422 4.422 0 0 0-1.081.133l-4.8-4.64a1.348 1.348 0 0 0-1.882 1.939l4.344 4.2a4.348 4.348 0 0 0-.792 1.493 4.377 4.377 0 0 0-1.879-.422h-.005a4.419 4.419 0 0 0-.98.111l-3.043-2.94a1.348 1.348 0 1 0-1.874 1.939l2.539 2.453a4.358 4.358 0 0 0-1.034 2.825v.891l-3.86-3.729a1.348 1.348 0 1 0-1.874 1.939l5.73 5.535v4.3a1.678 1.678 0 0 1-.889-.448L26.2 44.242a1.348 1.348 0 1 0-1.874 1.939l7.208 6.964a4.657 4.657 0 0 0-2.785 4.255l-.012 10.67a15.4 15.4 0 0 0 2.706 8.756l2.476 3.615-.006 5.659a3.123 3.123 0 0 0-.3.258 3.084 3.084 0 0 0-.912 2.193L32.7 90.88a1.348 1.348 0 0 0 1.345 1.352 1.348 1.348 0 0 0 1.348-1.345l.006-2.326a.4.4 0 0 1 .12-.289.375.375 0 0 1 .289-.12l21.616.024a.409.409 0 0 1 .409.408l-.006 2.323a1.348 1.348 0 0 0 1.345 1.352 1.348 1.348 0 0 0 1.348-1.345l.006-2.325a3.1 3.1 0 0 0-1.2-2.454l.007-6.017A23.332 23.332 0 0 0 62.39 68.6v-1.226a1.348 1.348 0 0 0-1.347-1.35 1.349 1.349 0 0 0-1.348 1.347V68.6a20.634 20.634 0 0 1-2.869 10.468 1.347 1.347 0 0 0-.188.685l-.006 5.726-20.022-.023.006-5.428a1.35 1.35 0 0 0-.236-.764L33.668 75.3a12.713 12.713 0 0 1-2.234-7.229l.012-10.67a1.955 1.955 0 0 1 1.954-1.948 1.957 1.957 0 0 1 1.953 1.957l-.005 4.654a1.348 1.348 0 0 0 1.347 1.35 1.348 1.348 0 0 0 1.348-1.347l.005-4.654.015-13.664a1.7 1.7 0 0 1 1.7-1.693 1.7 1.7 0 0 1 1.693 1.7l-.015 13.664a1.348 1.348 0 0 0 1.347 1.35 1.346 1.346 0 0 0 1.348-1.347l.018-16.371a1.7 1.7 0 0 1 1.7-1.693 1.7 1.7 0 0 1 1.693 1.7l-.018 16.371a1.348 1.348 0 0 0 1.347 1.35 1.346 1.346 0 0 0 1.348-1.347l.014-12.636a1.7 1.7 0 0 1 1.7-1.694 1.7 1.7 0 0 1 1.694 1.7l-.014 12.636a1.348 1.348 0 0 0 1.347 1.35 1.346 1.346 0 0 0 1.348-1.347l.011-10a1.7 1.7 0 0 1 1.7-1.692 1.7 1.7 0 0 1 1.693 1.7L59.7 61.611a1.348 1.348 0 0 0 1.347 1.35 1.348 1.348 0 0 0 1.353-1.347l.013-12.188a4.651 4.651 0 0 0 1.587.361q.117.006.233.006a4.617 4.617 0 0 0 3.119-1.206l7.9-7.167a15.4 15.4 0 0 0 4.66-7.891l1.01-4.263 4.194-3.8a3.136 3.136 0 0 0 .391.047h.155a3.083 3.083 0 0 0 2.083-.805l3.99-3.608a1.348 1.348 0 0 0 .093-1.9z" transform="translate(0 -.128)"/>
</svg>
